<svg xmlns="http://www.w3.org/2000/svg" xmlns:xlink="http://www.w3.org/1999/xlink" xmlns:lucid="lucid" width="882" height="1291"><g transform="translate(-460 0)" lucid:page-tab-id="0_0"><path d="M0 0h1760v1360H0z" fill="#fff"/><path d="M500 742.25a8 8 0 0 1 8-8h784a8 8 0 0 1 8 8v501a8 8 0 0 1-8 8H508a8 8 0 0 1-8-8z" stroke="#333" fill="#fff"/><path d="M740 908a8 8 0 0 1 8-8h304a8 8 0 0 1 8 8v104a8 8 0 0 1-8 8H748a8 8 0 0 1-8-8z" stroke="#333" fill="#cfe4ff"/><use xlink:href="#a" transform="matrix(1,0,0,1,752,912) translate(102.25 51.6)"/><path d="M820 1117.3a8 8 0 0 1 8-8h144a8 8 0 0 1 8 8v104a8 8 0 0 1-8 8H828a8 8 0 0 1-8-8z" stroke="#333" fill="#ffdda6"/><use xlink:href="#b" transform="matrix(1,0,0,1,832,1121.3139138175407) translate(21.124999999999993 51.6)"/><path d="M1060 1117.3a8 8 0 0 1 8-8h144a8 8 0 0 1 8 8v104a8 8 0 0 1-8 8h-144a8 8 0 0 1-8-8z" stroke="#333" fill="#fff3d9"/><use xlink:href="#c" transform="matrix(1,0,0,1,1072,1121.3139138175407) translate(5.324999999999996 40.8)"/><use xlink:href="#d" transform="matrix(1,0,0,1,1072,1121.3139138175407) translate(57.225 40.8)"/><use xlink:href="#e" transform="matrix(1,0,0,1,1072,1121.3139138175407) translate(88.125 40.8)"/><use xlink:href="#f" transform="matrix(1,0,0,1,1072,1121.3139138175407) translate(34.62499999999999 62.4)"/><path d="M580 1117.3a8 8 0 0 1 8-8h144a8 8 0 0 1 8 8v104a8 8 0 0 1-8 8H588a8 8 0 0 1-8-8z" stroke="#333" fill="#fff3d9"/><use xlink:href="#g" transform="matrix(1,0,0,1,592,1121.3139138175407) translate(0.22499999999999432 51.6)"/><use xlink:href="#h" transform="matrix(1,0,0,1,592,1121.3139138175407) translate(53.125 51.6)"/><use xlink:href="#i" transform="matrix(1,0,0,1,592,1121.3139138175407) translate(87.025 51.6)"/><path d="M500 742.25a8 8 0 0 1 8-8h344a8 8 0 0 1 8 8v104a8 8 0 0 1-8 8H508a8 8 0 0 1-8-8z" stroke="#000" stroke-opacity="0" fill="#fff" fill-opacity="0"/><use xlink:href="#j" transform="matrix(1,0,0,1,505,739.2499999999837) translate(34.00617283950635 61.222222222222214)"/><use xlink:href="#k" transform="matrix(1,0,0,1,505,739.2499999999837) translate(130.4506172839507 61.222222222222214)"/><use xlink:href="#l" transform="matrix(1,0,0,1,505,739.2499999999837) translate(207.45061728395058 61.222222222222214)"/><path d="M540 152.56a8 8 0 0 1 8-8h244a8 8 0 0 1 8 8v444a8 8 0 0 1-8 8H548a8 8 0 0 1-8-8z" stroke="#333" fill="#6db1ff"/><path d="M560 192.56a8 8 0 0 1 8-8h204a8 8 0 0 1 8 8v364a8 8 0 0 1-8 8H568a8 8 0 0 1-8-8z" stroke="#333" fill="#c3f7c8"/><use xlink:href="#m" transform="matrix(1,0,0,1,572,196.56391381755702) translate(78.725 181.6)"/><path d="M520 83.06a8 8 0 0 1 8-8h284a8 8 0 0 1 8 8v74a8 8 0 0 1-8 8H528a8 8 0 0 1-8-8z" stroke="#000" stroke-opacity="0" fill="#fff" fill-opacity="0"/><use xlink:href="#n" transform="matrix(1,0,0,1,525,80.06397682292231) translate(85.58641975308649 46.722222222222214)"/><path d="M1000 152.56a8 8 0 0 1 8-8h244a8 8 0 0 1 8 8v444a8 8 0 0 1-8 8h-244a8 8 0 0 1-8-8z" stroke="#333" fill="#6db1ff"/><path d="M1020 192.56a8 8 0 0 1 8-8h204a8 8 0 0 1 8 8V452a8 8 0 0 1-8 8h-204a8 8 0 0 1-8-8z" stroke="#333" fill="#c3f7c8"/><use xlink:href="#m" transform="matrix(1,0,0,1,1032,196.56391381755702) translate(78.725 129.6)"/><path d="M1043.16 1169.3h-46.32" stroke="#333" fill="none"/><path d="M1057.93 1169.3l-14.27 4.65v-9.27zM982.07 1169.3l14.27-4.62v9.27z" stroke="#333" fill="#333"/><path d="M756.84 1169.3h46.32" stroke="#333" fill="none"/><path d="M742.07 1169.3l14.27-4.62v9.27zM817.93 1169.3l-14.27 4.65v-9.27z" stroke="#333" fill="#333"/><path d="M900 1036.83v55.65" stroke="#333" fill="none"/><path d="M900 1022.07l4.64 14.26h-9.28zM900 1107.24l-4.64-14.26h9.28z" stroke="#333" fill="#333"/><path d="M670 581.4V698a12 12 0 0 0 12 12h206a12 12 0 0 1 12 12v161.17" stroke="#333" fill="none"/><path d="M670 566.63l4.64 14.27h-9.28zM900 897.93l-4.64-14.26h9.28z" stroke="#333" fill="#333"/><path d="M1020 508a8 8 0 0 1 8-8h204a8 8 0 0 1 8 8v63.76a8 8 0 0 1-8 8h-204a8 8 0 0 1-8-8z" stroke="#333" fill="#e3fae3"/><use xlink:href="#o" transform="matrix(1,0,0,1,1032,512) translate(17.525000000000006 31.6)"/><use xlink:href="#p" transform="matrix(1,0,0,1,1032,512) translate(109.97500000000001 31.6)"/><path d="M1130 483.17v-6.34" stroke="#333" fill="none"/><path d="M1130 497.93l-4.64-14.26h9.28zM1130 462.07l4.64 14.26h-9.28z" stroke="#333" fill="#333"/><path d="M1130 596.6V698a12 12 0 0 1-12 12H912a12 12 0 0 0-12 12v161.17" stroke="#333" fill="none"/><path d="M1130 581.83l4.64 14.26h-9.28zM900 897.93l-4.64-14.26h9.28z" stroke="#333" fill="#333"/><path d="M980 83.06a8 8 0 0 1 8-8h284a8 8 0 0 1 8 8v74a8 8 0 0 1-8 8H988a8 8 0 0 1-8-8z" stroke="#000" stroke-opacity="0" fill="#fff" fill-opacity="0"/><g><use xlink:href="#q" transform="matrix(1,0,0,1,985,80.06397682292231) translate(118.2098765432099 46.722222222222214)"/></g><defs><path fill="#333" d="M147 0H94L2-248h55l64 206c17-72 42-137 63-206h54" id="r"/><path fill="#333" d="M25-224v-37h50v37H25zM25 0v-190h50V0H25" id="s"/><path fill="#333" d="M185-48c-13 30-37 53-82 52C43 2 14-33 14-96s30-98 90-98c62 0 83 45 84 108H66c0 31 8 55 39 56 18 0 30-7 34-22zm-45-69c5-46-57-63-70-21-2 6-4 13-4 21h74" id="t"/><path fill="#333" d="M231 0h-52l-39-155L100 0H48L-1-190h46L77-45c9-52 24-97 36-145h53l37 145 32-145h46" id="u"/><path fill="#333" d="M230 0l2-204L168 0h-37L68-204 70 0H24v-248h70l56 185 57-185h69V0h-46" id="v"/><path fill="#333" d="M110-194c64 0 96 36 96 99 0 64-35 99-97 99-61 0-95-36-95-99 0-62 34-99 96-99zm-1 164c35 0 45-28 45-65 0-40-10-65-43-65-34 0-45 26-45 65 0 36 10 65 43 65" id="w"/><path fill="#333" d="M88-194c31-1 46 15 58 34l-1-101h50l1 261h-48c-2-10 0-23-3-31C134-8 116 4 84 4 32 4 16-41 15-95c0-56 19-97 73-99zm17 164c33 0 40-30 41-66 1-37-9-64-41-64s-38 30-39 65c0 43 13 65 39 65" id="x"/><path fill="#333" d="M25 0v-261h50V0H25" id="y"/><g id="a"><use transform="matrix(0.05,0,0,0.05,0,0)" xlink:href="#r"/><use transform="matrix(0.05,0,0,0.05,11.65,0)" xlink:href="#s"/><use transform="matrix(0.05,0,0,0.05,16.65,0)" xlink:href="#t"/><use transform="matrix(0.05,0,0,0.05,26.649999999999995,0)" xlink:href="#u"/><use transform="matrix(0.05,0,0,0.05,40.65,0)" xlink:href="#v"/><use transform="matrix(0.05,0,0,0.05,55.6,0)" xlink:href="#w"/><use transform="matrix(0.05,0,0,0.05,66.55,0)" xlink:href="#x"/><use transform="matrix(0.05,0,0,0.05,77.5,0)" xlink:href="#t"/><use transform="matrix(0.05,0,0,0.05,87.5,0)" xlink:href="#y"/></g><path fill="#333" d="M240-174c0 40-23 61-54 70L253 0h-59l-57-94H76V0H24v-248c93 4 217-23 216 74zM76-134c48-2 112 12 112-38 0-48-66-32-112-35v73" id="z"/><path fill="#333" d="M135-194c53 0 70 44 70 98 0 56-19 98-73 100-31 1-45-17-59-34 3 33 2 69 2 105H25l-1-265h48c2 10 0 23 3 31 11-24 29-35 60-35zM114-30c33 0 39-31 40-66 0-38-9-64-40-64-56 0-55 130 0 130" id="A"/><path fill="#333" d="M137-138c1-29-70-34-71-4 15 46 118 7 119 86 1 83-164 76-172 9l43-7c4 19 20 25 44 25 33 8 57-30 24-41C81-84 22-81 20-136c-2-80 154-74 161-7" id="B"/><path fill="#333" d="M115-3C79 11 28 4 28-45v-112H4v-33h27l15-45h31v45h36v33H77v99c-1 23 16 31 38 25v30" id="C"/><path fill="#333" d="M135-150c-39-12-60 13-60 57V0H25l-1-190h47c2 13-1 29 3 40 6-28 27-53 61-41v41" id="D"/><path fill="#333" d="M123 10C108 53 80 86 19 72V37c35 8 53-11 59-39L3-190h52l48 148c12-52 28-100 44-148h51" id="E"/><g id="b"><use transform="matrix(0.05,0,0,0.05,0,0)" xlink:href="#z"/><use transform="matrix(0.05,0,0,0.05,12.950000000000001,0)" xlink:href="#t"/><use transform="matrix(0.05,0,0,0.05,22.950000000000003,0)" xlink:href="#A"/><use transform="matrix(0.05,0,0,0.05,33.900000000000006,0)" xlink:href="#w"/><use transform="matrix(0.05,0,0,0.05,44.85000000000001,0)" xlink:href="#B"/><use transform="matrix(0.05,0,0,0.05,54.85,0)" xlink:href="#s"/><use transform="matrix(0.05,0,0,0.05,59.85,0)" xlink:href="#C"/><use transform="matrix(0.05,0,0,0.05,65.80000000000001,0)" xlink:href="#w"/><use transform="matrix(0.05,0,0,0.05,76.75000000000001,0)" xlink:href="#D"/><use transform="matrix(0.05,0,0,0.05,83.75000000000001,0)" xlink:href="#E"/></g><path fill="#333" d="M24 0v-248h52v208h133V0H24" id="F"/><path fill="#333" d="M190-63c-7 42-38 67-86 67-59 0-84-38-90-98-12-110 154-137 174-36l-49 2c-2-19-15-32-35-32-30 0-35 28-38 64-6 74 65 87 74 30" id="G"/><path fill="#333" d="M133-34C117-15 103 5 69 4 32 3 11-16 11-54c-1-60 55-63 116-61 1-26-3-47-28-47-18 1-26 9-28 27l-52-2c7-38 36-58 82-57s74 22 75 68l1 82c-1 14 12 18 25 15v27c-30 8-71 5-69-32zm-48 3c29 0 43-24 42-57-32 0-66-3-65 30 0 17 8 27 23 27" id="H"/><g id="c"><use transform="matrix(0.05,0,0,0.05,0,0)" xlink:href="#F"/><use transform="matrix(0.05,0,0,0.05,10.950000000000001,0)" xlink:href="#w"/><use transform="matrix(0.05,0,0,0.05,21.900000000000002,0)" xlink:href="#G"/><use transform="matrix(0.05,0,0,0.05,31.900000000000002,0)" xlink:href="#H"/><use transform="matrix(0.05,0,0,0.05,41.900000000000006,0)" xlink:href="#y"/></g><path fill="#333" d="M24-248c120-7 223 5 221 122C244-46 201 0 124 0H24v-248zM76-40c74 7 117-18 117-86 0-67-45-88-117-82v168" id="I"/><path fill="#333" d="M182-130c37 4 62 22 62 59C244 23 116-4 24 0v-248c84 5 203-23 205 63 0 31-19 50-47 55zM76-148c40-3 101 13 101-30 0-44-60-28-101-31v61zm0 110c48-3 116 14 116-37 0-48-69-32-116-35v72" id="J"/><g id="d"><use transform="matrix(0.05,0,0,0.05,0,0)" xlink:href="#I"/><use transform="matrix(0.05,0,0,0.05,12.950000000000001,0)" xlink:href="#J"/></g><path fill="#333" d="M67-93c0 74 22 123 53 168H70C40 30 18-18 18-93s22-123 52-168h50c-32 44-53 94-53 168" id="K"/><path fill="#333" d="M169-182c-1-43-94-46-97-3 18 66 151 10 154 114 3 95-165 93-204 36-6-8-10-19-12-30l50-8c3 46 112 56 116 5-17-69-150-10-154-114-4-87 153-88 188-35 5 8 8 18 10 28" id="L"/><path fill="#333" d="M140-251c80 0 125 45 125 126 0 70-33 111-92 124 6 28 34 38 68 31l-1 36C177 83 129 55 120 2 51-6 15-50 15-125c0-81 44-126 125-126zm-1 214c52 0 73-35 73-88 0-50-21-86-72-86-52 0-73 35-73 86s22 88 72 88" id="M"/><g id="e"><use transform="matrix(0.05,0,0,0.05,0,0)" xlink:href="#K"/><use transform="matrix(0.05,0,0,0.05,5.95,0)" xlink:href="#L"/><use transform="matrix(0.05,0,0,0.05,17.95,0)" xlink:href="#M"/><use transform="matrix(0.05,0,0,0.05,31.950000000000003,0)" xlink:href="#F"/></g><path fill="#333" d="M195-6C206 82 75 100 31 46c-4-6-6-13-8-21l49-6c3 16 16 24 34 25 40 0 42-37 40-79-11 22-30 35-61 35-53 0-70-43-70-97 0-56 18-96 73-97 30 0 46 14 59 34l2-30h47zm-90-29c32 0 41-27 41-63 0-35-9-62-40-62-32 0-39 29-40 63 0 36 9 62 39 62" id="N"/><path fill="#333" d="M114-157C55-157 80-60 75 0H25v-261h50l-1 109c12-26 28-41 61-42 86-1 58 113 63 194h-50c-7-57 23-157-34-157" id="O"/><path fill="#333" d="M102-93c0 74-22 123-52 168H0C30 29 54-18 53-93c0-74-22-123-53-168h50c30 45 52 94 52 168" id="P"/><g id="f"><use transform="matrix(0.05,0,0,0.05,0,0)" xlink:href="#I"/><use transform="matrix(0.05,0,0,0.05,12.950000000000001,0)" xlink:href="#t"/><use transform="matrix(0.05,0,0,0.05,22.950000000000003,0)" xlink:href="#y"/><use transform="matrix(0.05,0,0,0.05,27.950000000000003,0)" xlink:href="#s"/><use transform="matrix(0.05,0,0,0.05,32.95,0)" xlink:href="#N"/><use transform="matrix(0.05,0,0,0.05,43.900000000000006,0)" xlink:href="#O"/><use transform="matrix(0.05,0,0,0.05,54.85,0)" xlink:href="#C"/><use transform="matrix(0.05,0,0,0.05,60.80000000000001,0)" xlink:href="#P"/></g><path fill="#333" d="M24 0v-248h195v40H76v63h132v40H76v65h150V0H24" id="Q"/><path fill="#333" d="M136-208V0H84v-208H4v-40h212v40h-80" id="R"/><g id="g"><use transform="matrix(0.05,0,0,0.05,0,0)" xlink:href="#z"/><use transform="matrix(0.05,0,0,0.05,12.950000000000001,0)" xlink:href="#Q"/><use transform="matrix(0.05,0,0,0.05,24.950000000000003,0)" xlink:href="#L"/><use transform="matrix(0.05,0,0,0.05,36.95,0)" xlink:href="#R"/></g><path fill="#333" d="M199 0l-22-63H83L61 0H9l90-248h61L250 0h-51zm-33-102l-36-108c-10 38-24 72-36 108h72" id="S"/><g id="h"><use transform="matrix(0.05,0,0,0.05,0,0)" xlink:href="#S"/><use transform="matrix(0.05,0,0,0.05,12.950000000000001,0)" xlink:href="#A"/><use transform="matrix(0.05,0,0,0.05,23.900000000000002,0)" xlink:href="#s"/></g><path fill="#333" d="M195 0l-88-114-31 24V0H24v-248h52v113l112-113h60L142-143 257 0h-62" id="T"/><g id="i"><use transform="matrix(0.05,0,0,0.05,0,0)" xlink:href="#K"/><use transform="matrix(0.05,0,0,0.05,5.95,0)" xlink:href="#T"/><use transform="matrix(0.05,0,0,0.05,18.900000000000002,0)" xlink:href="#C"/><use transform="matrix(0.05,0,0,0.05,24.85,0)" xlink:href="#w"/><use transform="matrix(0.05,0,0,0.05,35.800000000000004,0)" xlink:href="#D"/><use transform="matrix(0.05,0,0,0.05,42.800000000000004,0)" xlink:href="#P"/></g><path fill="#3a414a" d="M195 0l-88-114-31 24V0H24v-248h52v113l112-113h60L142-143 257 0h-62" id="U"/><path fill="#3a414a" d="M110-194c64 0 96 36 96 99 0 64-35 99-97 99-61 0-95-36-95-99 0-62 34-99 96-99zm-1 164c35 0 45-28 45-65 0-40-10-65-43-65-34 0-45 26-45 65 0 36 10 65 43 65" id="V"/><path fill="#3a414a" d="M115-3C79 11 28 4 28-45v-112H4v-33h27l15-45h31v45h36v33H77v99c-1 23 16 31 38 25v30" id="W"/><path fill="#3a414a" d="M25 0v-261h50V0H25" id="X"/><path fill="#3a414a" d="M25-224v-37h50v37H25zM25 0v-190h50V0H25" id="Y"/><path fill="#3a414a" d="M135-194c87-1 58 113 63 194h-50c-7-57 23-157-34-157-59 0-34 97-39 157H25l-1-190h47c2 12-1 28 3 38 12-26 28-41 61-42" id="Z"/><g id="j"><use transform="matrix(0.08641975308641965,0,0,0.08641975308641965,0,0)" xlink:href="#U"/><use transform="matrix(0.08641975308641965,0,0,0.08641975308641965,22.38271604938269,0)" xlink:href="#V"/><use transform="matrix(0.08641975308641965,0,0,0.08641975308641965,41.30864197530859,0)" xlink:href="#W"/><use transform="matrix(0.08641975308641965,0,0,0.08641975308641965,51.592592592592524,0)" xlink:href="#X"/><use transform="matrix(0.08641975308641965,0,0,0.08641975308641965,60.234567901234485,0)" xlink:href="#Y"/><use transform="matrix(0.08641975308641965,0,0,0.08641975308641965,68.87654320987646,0)" xlink:href="#Z"/></g><path fill="#3a414a" d="M230 0l2-204L168 0h-37L68-204 70 0H24v-248h70l56 185 57-185h69V0h-46" id="aa"/><path fill="#3a414a" d="M24-248c93 1 206-16 204 79-1 75-69 88-152 82V0H24v-248zm52 121c47 0 100 7 100-41 0-47-54-39-100-39v80" id="ab"/><g id="k"><use transform="matrix(0.08641975308641965,0,0,0.08641975308641965,0,0)" xlink:href="#U"/><use transform="matrix(0.08641975308641965,0,0,0.08641975308641965,22.38271604938269,0)" xlink:href="#aa"/><use transform="matrix(0.08641975308641965,0,0,0.08641975308641965,48.222222222222165,0)" xlink:href="#ab"/></g><path fill="#3a414a" d="M88-194c31-1 46 15 58 34l-1-101h50l1 261h-48c-2-10 0-23-3-31C134-8 116 4 84 4 32 4 16-41 15-95c0-56 19-97 73-99zm17 164c33 0 40-30 41-66 1-37-9-64-41-64s-38 30-39 65c0 43 13 65 39 65" id="ac"/><path fill="#3a414a" d="M85 4C-2 5 27-109 22-190h50c7 57-23 150 33 157 60-5 35-97 40-157h50l1 190h-47c-2-12 1-28-3-38-12 25-28 42-61 42" id="ad"/><path fill="#3a414a" d="M185-48c-13 30-37 53-82 52C43 2 14-33 14-96s30-98 90-98c62 0 83 45 84 108H66c0 31 8 55 39 56 18 0 30-7 34-22zm-45-69c5-46-57-63-70-21-2 6-4 13-4 21h74" id="ae"/><g id="l"><use transform="matrix(0.08641975308641965,0,0,0.08641975308641965,0,0)" xlink:href="#aa"/><use transform="matrix(0.08641975308641965,0,0,0.08641975308641965,25.839506172839474,0)" xlink:href="#V"/><use transform="matrix(0.08641975308641965,0,0,0.08641975308641965,44.765432098765366,0)" xlink:href="#ac"/><use transform="matrix(0.08641975308641965,0,0,0.08641975308641965,63.691358024691276,0)" xlink:href="#ad"/><use transform="matrix(0.08641975308641965,0,0,0.08641975308641965,82.61728395061718,0)" xlink:href="#X"/><use transform="matrix(0.08641975308641965,0,0,0.08641975308641965,91.25925925925914,0)" xlink:href="#ae"/></g><path fill="#333" d="M137 0h-34L2-248h35l83 218 83-218h36" id="af"/><path fill="#333" d="M24-231v-30h32v30H24zM24 0v-190h32V0H24" id="ag"/><path fill="#333" d="M100-194c63 0 86 42 84 106H49c0 40 14 67 53 68 26 1 43-12 49-29l28 8c-11 28-37 45-77 45C44 4 14-33 15-96c1-61 26-98 85-98zm52 81c6-60-76-77-97-28-3 7-6 17-6 28h103" id="ah"/><path fill="#333" d="M206 0h-36l-40-164L89 0H53L-1-190h32L70-26l43-164h34l41 164 42-164h31" id="ai"/><g id="m"><use transform="matrix(0.05,0,0,0.05,0,0)" xlink:href="#af"/><use transform="matrix(0.05,0,0,0.05,11.65,0)" xlink:href="#ag"/><use transform="matrix(0.05,0,0,0.05,15.600000000000001,0)" xlink:href="#ah"/><use transform="matrix(0.05,0,0,0.05,25.6,0)" xlink:href="#ai"/></g><path fill="#3a414a" d="M199 0l-22-63H83L61 0H9l90-248h61L250 0h-51zm-33-102l-36-108c-10 38-24 72-36 108h72" id="aj"/><path fill="#3a414a" d="M135-150c-39-12-60 13-60 57V0H25l-1-190h47c2 13-1 29 3 40 6-28 27-53 61-41v41" id="ak"/><g id="n"><use transform="matrix(0.08641975308641965,0,0,0.08641975308641965,0,0)" xlink:href="#aj"/><use transform="matrix(0.08641975308641965,0,0,0.08641975308641965,22.38271604938269,0)" xlink:href="#Z"/><use transform="matrix(0.08641975308641965,0,0,0.08641975308641965,41.30864197530859,0)" xlink:href="#ac"/><use transform="matrix(0.08641975308641965,0,0,0.08641975308641965,60.234567901234485,0)" xlink:href="#ak"/><use transform="matrix(0.08641975308641965,0,0,0.08641975308641965,72.33333333333324,0)" xlink:href="#V"/><use transform="matrix(0.08641975308641965,0,0,0.08641975308641965,91.25925925925915,0)" xlink:href="#Y"/><use transform="matrix(0.08641975308641965,0,0,0.08641975308641965,99.90123456790111,0)" xlink:href="#ac"/></g><path fill="#333" d="M240 0l2-218c-23 76-54 145-80 218h-23L58-218 59 0H30v-248h44l77 211c21-75 51-140 76-211h43V0h-30" id="al"/><path fill="#333" d="M100-194c62-1 85 37 85 99 1 63-27 99-86 99S16-35 15-95c0-66 28-99 85-99zM99-20c44 1 53-31 53-75 0-43-8-75-51-75s-53 32-53 75 10 74 51 75" id="am"/><path fill="#333" d="M85-194c31 0 48 13 60 33l-1-100h32l1 261h-30c-2-10 0-23-3-31C134-8 116 4 85 4 32 4 16-35 15-94c0-66 23-100 70-100zm9 24c-40 0-46 34-46 75 0 40 6 74 45 74 42 0 51-32 51-76 0-42-9-74-50-73" id="an"/><path fill="#333" d="M24 0v-261h32V0H24" id="ao"/><g id="o"><use transform="matrix(0.05,0,0,0.05,0,0)" xlink:href="#af"/><use transform="matrix(0.05,0,0,0.05,11.65,0)" xlink:href="#ag"/><use transform="matrix(0.05,0,0,0.05,15.600000000000001,0)" xlink:href="#ah"/><use transform="matrix(0.05,0,0,0.05,25.6,0)" xlink:href="#ai"/><use transform="matrix(0.05,0,0,0.05,38.550000000000004,0)" xlink:href="#al"/><use transform="matrix(0.05,0,0,0.05,53.5,0)" xlink:href="#am"/><use transform="matrix(0.05,0,0,0.05,63.5,0)" xlink:href="#an"/><use transform="matrix(0.05,0,0,0.05,73.5,0)" xlink:href="#ah"/><use transform="matrix(0.05,0,0,0.05,83.5,0)" xlink:href="#ao"/></g><path fill="#333" d="M266 0h-40l-56-210L115 0H75L2-248h35L96-30l15-64 43-154h32l59 218 59-218h35" id="ap"/><path fill="#333" d="M114-163C36-179 61-72 57 0H25l-1-190h30c1 12-1 29 2 39 6-27 23-49 58-41v29" id="aq"/><path fill="#333" d="M141-36C126-15 110 5 73 4 37 3 15-17 15-53c-1-64 63-63 125-63 3-35-9-54-41-54-24 1-41 7-42 31l-33-3c5-37 33-52 76-52 45 0 72 20 72 64v82c-1 20 7 32 28 27v20c-31 9-61-2-59-35zM48-53c0 20 12 33 32 33 41-3 63-29 60-74-43 2-92-5-92 41" id="ar"/><path fill="#333" d="M115-194c55 1 70 41 70 98S169 2 115 4C84 4 66-9 55-30l1 105H24l-1-265h31l2 30c10-21 28-34 59-34zm-8 174c40 0 45-34 45-75s-6-73-45-74c-42 0-51 32-51 76 0 43 10 73 51 73" id="as"/><g id="p"><use transform="matrix(0.05,0,0,0.05,0,0)" xlink:href="#ap"/><use transform="matrix(0.05,0,0,0.05,16.599999999999998,0)" xlink:href="#aq"/><use transform="matrix(0.05,0,0,0.05,22.549999999999997,0)" xlink:href="#ar"/><use transform="matrix(0.05,0,0,0.05,32.55,0)" xlink:href="#as"/><use transform="matrix(0.05,0,0,0.05,42.55,0)" xlink:href="#as"/><use transform="matrix(0.05,0,0,0.05,52.54999999999999,0)" xlink:href="#ah"/><use transform="matrix(0.05,0,0,0.05,62.54999999999999,0)" xlink:href="#aq"/></g><path fill="#3a414a" d="M140-251c80 0 125 45 125 126S219 4 139 4C58 4 15-44 15-125s44-126 125-126zm-1 214c52 0 73-35 73-88 0-50-21-86-72-86-52 0-73 35-73 86s22 88 72 88" id="at"/><path fill="#3a414a" d="M169-182c-1-43-94-46-97-3 18 66 151 10 154 114 3 95-165 93-204 36-6-8-10-19-12-30l50-8c3 46 112 56 116 5-17-69-150-10-154-114-4-87 153-88 188-35 5 8 8 18 10 28" id="au"/><g id="q"><use transform="matrix(0.08641975308641965,0,0,0.08641975308641965,0,0)" xlink:href="#Y"/><use transform="matrix(0.08641975308641965,0,0,0.08641975308641965,8.641975308641966,0)" xlink:href="#at"/><use transform="matrix(0.08641975308641965,0,0,0.08641975308641965,32.83950617283947,0)" xlink:href="#au"/></g></defs></g></svg>